<svg xmlns="http://www.w3.org/2000/svg" viewBox="0 0 107.00001 26"><defs><style>.a{fill:#fff;}</style></defs><path class="a" d="M.81029,0A1.473,1.473,0,0,0,.01286,1.53v23A1.42963,1.42963,0,0,0,.801,26L11.928,13Z"/><polygon class="a" points="2.758 0.63 12.651 12.19 15.952 8.34 2.758 0.63"/><path class="a" d="M16.89807,8.89,13.356,13l3.56065,4.14,4.8866-2.82c.92725-.54,1.25178-.79,1.25178-1.29s-.35235-.76-1.25178-1.3Z"/><polygon class="a" points="12.67 13.83 2.72 25.4 15.989 17.69 12.67 13.83"/><path class="a" d="M38.19374,4.02381a2.37619,2.37619,0,0,1-.654,1.75781,2.55285,2.55285,0,0,1-1.93439.77908,2.71167,2.71167,0,0,1-2.73568-2.75033,2.7124,2.7124,0,0,1,2.73568-2.75078,2.71618,2.71618,0,0,1,1.0808.22073,2.17214,2.17214,0,0,1,.82367.58836l-.46287.46322a1.77829,1.77829,0,0,0-1.4416-.62479,2.03549,2.03549,0,0,0-2.04489,2.10326,2.07044,2.07044,0,0,0,3.51563,1.51532A1.6571,1.6571,0,0,0,37.51743,4.259h-1.9121V3.6265h2.55155A2.23241,2.23241,0,0,1,38.19374,4.02381Z"/><path class="a" d="M42.239,1.82454H39.841V3.49407h2.16241v.6326H39.841V5.79619h2.398v.64708H39.16475V1.17746H42.239Z"/><path class="a" d="M45.09222,6.44327h-.6771V1.82454H42.94438V1.17746H46.563v.64708H45.09222Z"/><path class="a" d="M49.1813,6.44327V1.17746h.67621V6.44327Z"/><path class="a" d="M52.85894,6.44327h-.6771V1.82454H50.71119V1.17746h3.61849v.64708H52.85894Z"/><path class="a" d="M61.1798,5.76275a2.73431,2.73431,0,0,1-3.86107,0,2.692,2.692,0,0,1-.77565-1.95238A2.692,2.692,0,0,1,57.31873,1.858a2.725,2.725,0,0,1,3.85765.00342,2.69231,2.69231,0,0,1,.77908,1.949A2.69591,2.69591,0,0,1,61.1798,5.76275Zm-3.36143-.44092a2.02473,2.02473,0,0,0,2.86092,0,2.061,2.061,0,0,0,.58538-1.51146,2.061,2.061,0,0,0-.58538-1.51147,2.02473,2.02473,0,0,0-2.86092,0,2.06352,2.06352,0,0,0-.5845,1.51147A2.06351,2.06351,0,0,0,57.81837,5.32183Z"/><path class="a" d="M62.90506,6.44327V1.17746h.82366l2.55919,4.09636H66.317L66.28791,4.259V1.17746H66.965V6.44327h-.70623l-2.67749-4.2948h-.02914l.02914,1.01481v3.28Z"/><path class="a" d="M56.37606,14.124A3.73274,3.73274,0,1,0,60.123,17.85666,3.67924,3.67924,0,0,0,56.37606,14.124Zm0,5.99495a2.15951,2.15951,0,0,1-2.10676-2.26228,2.11206,2.11206,0,1,1,4.21344,0A2.15944,2.15944,0,0,1,56.37606,20.11894ZM48.20229,14.124a3.73274,3.73274,0,1,0,3.74681,3.73267A3.67924,3.67924,0,0,0,48.20229,14.124Zm0,5.99495a2.15946,2.15946,0,0,1-2.10676-2.26228,2.11206,2.11206,0,1,1,4.21344,0A2.15944,2.15944,0,0,1,48.20229,20.11894ZM38.47914,15.2693v1.58352h3.78937a3.305,3.305,0,0,1-.86254,1.99364,3.87932,3.87932,0,0,1-2.92683,1.15935,4.21383,4.21383,0,0,1,0-8.42688A4.03874,4.03874,0,0,1,41.33532,12.71l1.117-1.117a5.52417,5.52417,0,0,0-3.97315-1.59773,5.87818,5.87818,0,0,0-5.88191,5.797,5.87813,5.87813,0,0,0,5.88191,5.79705,5.2998,5.2998,0,0,0,4.0438-1.626A5.23244,5.23244,0,0,0,43.89451,16.259a5.15279,5.15279,0,0,0-.085-.98971Zm39.76418,1.23A3.46917,3.46917,0,0,0,75.04785,14.124a3.54737,3.54737,0,0,0-3.52055,3.73267,3.65273,3.65273,0,0,0,3.70441,3.73276,3.7129,3.7129,0,0,0,3.11052-1.65426l-1.27249-.84832a2.13181,2.13181,0,0,1-1.838,1.0321,1.8988,1.8988,0,0,1-1.80986-1.1311l4.9912-2.06428Zm-5.09,1.24431a2.04726,2.04726,0,0,1,1.95107-2.17741,1.44544,1.44544,0,0,1,1.3857.7918Zm-4.058,3.61955h1.64012V10.39132H69.09529Zm-2.68645-6.405h-.05652A2.58669,2.58669,0,0,0,64.387,14.124a3.7361,3.7361,0,0,0,0,7.46543,2.5449,2.5449,0,0,0,1.96537-.84832h.05652v.53729c0,1.42808-.76345,2.19154-1.99363,2.19154a2.06531,2.06531,0,0,1-1.88043-1.32909l-1.42808.59389a3.55722,3.55722,0,0,0,3.30851,2.20568c1.923,0,3.549-1.1311,3.549-3.88828v-6.702H66.40884Zm-1.88042,5.16076a2.14212,2.14212,0,0,1-2.0785-2.24815,2.159,2.159,0,0,1,2.0785-2.27632A2.10344,2.10344,0,0,1,66.522,17.87079,2.08594,2.08594,0,0,1,64.52842,20.11894Zm21.39763-9.72745H82.002V21.36317h1.6374V17.20633h2.28668a3.41254,3.41254,0,1,0,0-6.81484Zm.0423,5.28793h-2.329V11.91849h2.329a1.88087,1.88087,0,1,1,0,3.76093ZM96.089,14.1038a3.07472,3.07472,0,0,0-2.92191,1.67971l1.45389.607a1.55161,1.55161,0,0,1,1.4962-.80461,1.57679,1.57679,0,0,1,1.72209,1.4115v.113a3.62259,3.62259,0,0,0-1.708-.42346c-1.56676,0-3.16177.86105-3.16177,2.47019a2.53465,2.53465,0,0,0,2.72418,2.41368A2.31025,2.31025,0,0,0,97.78282,20.498h.05643v.84692h1.58089V17.13858C99.42014,15.19067,97.96625,14.1038,96.089,14.1038Zm-.19764,6.013c-.53641,0-1.2845-.26811-1.2845-.93161,0-.84683.9316-1.17155,1.73622-1.17155a2.91748,2.91748,0,0,1,1.49619.367A1.98515,1.98515,0,0,1,95.89134,20.11683Zm9.28784-5.77308-1.87735,4.75678h-.05652l-1.94782-4.75678h-1.7644l2.92182,6.64826-1.66557,3.69818h1.70788L107,14.34375ZM90.42876,21.36317h1.63732V10.39149H90.42876Z"/></svg>