<svg xmlns="http://www.w3.org/2000/svg" viewBox="0 0 107 26"><defs><style>.a{fill:#fff;}</style></defs><path class="a" d="M35.20355,11.11147H33.40439l-4.248,11.33078h1.89911l1.0695-2.99756h4.338l1.0795,2.99756h1.99906ZM32.64475,17.876l1.14946-3.26734c.16992-.49959.31985-.99919.45978-1.47879.15993.54955.31985.99918.46979,1.49878L35.89323,17.876ZM47.2879,15.6178a2.80867,2.80867,0,0,0-2.60878-1.76856,3.20885,3.20885,0,0,0-2.44885,1.259,9.35877,9.35877,0,0,0-.13994-1.07912H40.35114c0,.74939.06,1.43883.06,2.05833v9.91193l1.85913-.16986V22.32234a4.66913,4.66913,0,0,0,1.60925.28977,3.49844,3.49844,0,0,0,3.36842-2.12827,5.92317,5.92317,0,0,0,.46978-2.52794,5.70351,5.70351,0,0,0-.40981-2.3381Zm-1.99906,4.76612a1.84933,1.84933,0,0,1-1.62924.79935,3.55944,3.55944,0,0,1-.72966-.08993,2.30939,2.30939,0,0,1-.6397-.21982V16.3572a3.07821,3.07821,0,0,1,.8596-.70942,1.99955,1.99955,0,0,1,.99953-.26978,1.45943,1.45943,0,0,1,1.23942.63948,3.44617,3.44617,0,0,1,.44979,2.0883,3.99566,3.99566,0,0,1-.56973,2.27814ZM55.81392,15.6178a2.7787,2.7787,0,0,0-2.60878-1.76856,3.25886,3.25886,0,0,0-2.48884,1.259,9.36918,9.36918,0,0,0-.08-1.0991H48.85717c0,.74939.06,1.43883.06,2.05832v9.91194l1.83915-.16986V22.32234a4.78908,4.78908,0,0,0,1.62923.28977,3.62921,3.62921,0,0,0,1.99907-.53956A3.54746,3.54746,0,0,0,55.734,20.48384a5.99327,5.99327,0,0,0,.48977-2.52794,5.52377,5.52377,0,0,0-.4298-2.3381Zm-1.99907,4.76612a1.87933,1.87933,0,0,1-1.64923.79935,3.45938,3.45938,0,0,1-.71966-.08993,2.62894,2.62894,0,0,1-.6497-.21982V16.3572a3.43812,3.43812,0,0,1,.86959-.70942,1.99959,1.99959,0,0,1,.99954-.26978,1.48945,1.48945,0,0,1,1.24941.63948,3.606,3.606,0,0,1,.41981,2.0883,4.0756,4.0756,0,0,1-.55974,2.27814Zm5.93723,1.52876a4.59681,4.59681,0,0,1-1.83914-1.99837,6.75257,6.75257,0,0,1-.6497-3.04752,6.66265,6.66265,0,0,1,.73966-3.24736A4.86681,4.86681,0,0,1,60.002,11.62105a6.209,6.209,0,0,1,2.86866-.66945,7.5287,7.5287,0,0,1,3.36843.80934l-.47978,1.48879a6.15884,6.15884,0,0,0-2.80869-.7394,3.72924,3.72924,0,0,0-1.99906.50959,3.26771,3.26771,0,0,0-1.31939,1.48878,5.33413,5.33413,0,0,0-.47977,2.35808,5.87334,5.87334,0,0,0,.36983,2.15825,3.09749,3.09749,0,0,0,1.10948,1.47879,3.32925,3.32925,0,0,0,1.99906.59952,6.34928,6.34928,0,0,0,1.0695-.08993,4.86933,4.86933,0,0,0,.99954-.27977v-2.3381H62.20093V16.89676h4.298v4.76612a9.07761,9.07761,0,0,1-1.99907.69943,8.66877,8.66877,0,0,1-1.99906.23981,5.569,5.569,0,0,1-2.7887-.68944ZM74.895,20.85354V17.49627a4.9245,4.9245,0,0,0-.39982-2.17823A2.48839,2.48839,0,0,0,73.34572,14.179a4.19936,4.19936,0,0,0-1.77917-.32973,7.99856,7.99856,0,0,0-2.9986.6195l.29987,1.40885a7.20846,7.20846,0,0,1,1.17945-.41966,4.99906,4.99906,0,0,1,1.25941-.18985,1.74957,1.74957,0,0,1,1.30939.45963,2.20763,2.20763,0,0,1,.45978,1.58871v.14988a10.23768,10.23768,0,0,0-1.45932-.09992,4.38911,4.38911,0,0,0-2.88865.7394,2.51755,2.51755,0,0,0-.8396,1.99837,2.68709,2.68709,0,0,0,.33984,1.41885,2.0787,2.0787,0,0,0,.89958.8593,2.79958,2.79958,0,0,0,1.2694.27977,3.21935,3.21935,0,0,0,1.54928-.3697,3.588,3.588,0,0,0,1.10948-.90926,8.14965,8.14965,0,0,0,.12994,1.11909H74.915q-.06-1.1091-.06-1.64866Zm-1.83914-.68944a2.81836,2.81836,0,0,1-.93956.70942,2.38938,2.38938,0,0,1-1.12947.29976,1.09915,1.09915,0,0,1-1.18945-1.229,1.32875,1.32875,0,0,1,.4398-1.04915,2.44956,2.44956,0,0,1,1.58925-.37969,10.158,10.158,0,0,1,1.22943.07994Zm3.45839.25979V10.432l1.83913-.15987v9.832a1.25859,1.25859,0,0,0,.17992.76937.65978.65978,0,0,0,.55973.21982,2.10944,2.10944,0,0,0,.48977-.08992l.2099,1.38887a2.73957,2.73957,0,0,1-.6397.16986,3.34915,3.34915,0,0,1-.70966.06994c-1.32938-.03-1.96908-.75938-1.96908-2.2082Zm4.60784,0V10.432l1.83914-.15987v9.832a1.25859,1.25859,0,0,0,.17992.76937.6498.6498,0,0,0,.47978.22982,2.00015,2.00015,0,0,0,.48976-.08993l.2199,1.38887a2.87909,2.87909,0,0,1-.6397.16986,3.50911,3.50911,0,0,1-.71966.06994c-1.24942-.04-1.88912-.76937-1.88912-2.21819ZM92.017,17.9559a5.76366,5.76366,0,0,0-.39981-2.05833,3.32736,3.32736,0,0,0-1.14947-1.48878,3.16926,3.16926,0,0,0-1.84913-.55955,3.42846,3.42846,0,0,0-3.25848,2.07831,5.76351,5.76351,0,0,0-.45978,2.39805,5.49383,5.49383,0,0,0,.43979,2.30812,3.14781,3.14781,0,0,0,1.2794,1.4688,4.27923,4.27923,0,0,0,2.169.50959,6.53893,6.53893,0,0,0,2.9986-.68944l-.38982-1.32892a6.1887,6.1887,0,0,1-1.13947.39968,5.20926,5.20926,0,0,1-1.17945.13988c-1.51928,0-2.32891-.87928-2.40887-2.64784H92.017Zm-5.22756-.70942a2.72733,2.72733,0,0,1,.60972-1.50878,1.55953,1.55953,0,0,1,1.21943-.50958,1.42957,1.42957,0,0,1,1.15946.50958,2.35752,2.35752,0,0,1,.48977,1.50878ZM93.5163,16.1074c0-.46962,0-1.169-.06-2.11827h1.7292c0,.22981.05.50958.08.83931a5.18854,5.18854,0,0,0,.06.78936,6.5951,6.5951,0,0,1,.62971-.92924,2.70841,2.70841,0,0,1,.72966-.6195,1.82962,1.82962,0,0,1,.93956-.2398,3.05981,3.05981,0,0,1,.73965.08992l-.22989,1.67864a2.0795,2.0795,0,0,0-.59972-.08993,1.9996,1.9996,0,0,0-1.13947.34972,4.55668,4.55668,0,0,0-.99953,1.14906v5.4156H93.5163Zm5.9972,9.77205a3.86981,3.86981,0,0,1-.66968-.16986l.33983-1.40886a2.99945,2.99945,0,0,0,.46978.10992,3.28935,3.28935,0,0,0,.53975.04995c.81962,0,1.42934-.54955,1.83914-1.64865l.12-.30975-2.9986-8.51308h1.99906l1.4993,4.75614a14.593,14.593,0,0,1,.46978,1.86848c.13994-.60951.30986-1.219.49977-1.82852l1.51929-4.79609H107l-2.9986,8.543a8.731,8.731,0,0,1-.90958,1.99838,3.26808,3.26808,0,0,1-1.13946,1.1091,3.43945,3.43945,0,0,1-1.59926.3597,4.99821,4.99821,0,0,1-.87958-.09992ZM29.13638.12041h3.33844l-.09.83932H30.11593v1.5987h2.139v.78935h-2.139V5.11635h2.38888l-.08.8493H29.13638Zm5.63737,2.88765L33.01457.12041H34.124L35.3135,2.2187,36.57291.12041h1.0695l-1.73919,2.8277,1.88912,3.05751H36.64288l-1.31939-2.3281-1.37935,2.3281h-1.0795Zm6.86679-2.468A2.60949,2.60949,0,0,0,40.03129.12041H38.522V6.00562h.99953V3.71748a3.11957,3.11957,0,0,0,.73966.08993,2.21961,2.21961,0,0,0,.99953-.2398,1.749,1.749,0,0,0,.71967-.67945,1.99782,1.99782,0,0,0,.25987-.99919A1.6184,1.6184,0,0,0,41.64054.54007Zm-.70967,2.18822a1.28966,1.28966,0,0,1-.91956.29975l-.55974-.05995V.85981h.52975a1.54967,1.54967,0,0,1,.93956.2398.9191.9191,0,0,1,.30985.79935,1.09887,1.09887,0,0,1-.25987.82933ZM43.21981.12041h.99953V5.11635h2.31891l-.08.87928H43.21981Zm8.84586,1.31893a2.36842,2.36842,0,0,0-.93956-.99919,2.79937,2.79937,0,0,0-1.4893-.43964A3.15937,3.15937,0,0,0,48.07753.3802,2.56822,2.56822,0,0,0,47.078,1.46931,3.566,3.566,0,0,0,46.73816,3.118,3.506,3.506,0,0,0,47.078,4.6767a2.45835,2.45835,0,0,0,.93956.99919,2.85939,2.85939,0,0,0,1.47931.43964,3.07941,3.07941,0,0,0,1.53928-.37969,2.62828,2.62828,0,0,0,.99954-1.07912,3.80591,3.80591,0,0,0,.34983-1.65865,3.49613,3.49613,0,0,0-.31985-1.58871Zm-.89958,2.78773a1.75863,1.75863,0,0,1-.60972.78936,1.71964,1.71964,0,0,1-.99953.28976,1.63954,1.63954,0,0,1-.99953-.29976,1.76858,1.76858,0,0,1-.59972-.79934A3.19659,3.19659,0,0,1,47.75768,3.058a2.99688,2.99688,0,0,1,.2099-1.1091,1.91863,1.91863,0,0,1,.66969-.82932,1.64964,1.64964,0,0,1,.99954-.29976A1.58922,1.58922,0,0,1,51.22606,1.919,3.33624,3.33624,0,0,1,51.406,3.048a2.90689,2.90689,0,0,1-.23989,1.14906Zm4.88772-.80934a2.05922,2.05922,0,0,0,.57973-.35971,2.27816,2.27816,0,0,0,.43979-.57953,1.99785,1.99785,0,0,0,.17992-.82932A1.45856,1.45856,0,0,0,56.76347.49011a2.31948,2.31948,0,0,0-1.49929-.3697H53.485V6.00562h.99953V3.65753h.71966l1.42934,2.34809H57.763ZM55.634,2.73828a1.22978,1.22978,0,0,1-.61971.13989h-.55974V.87979h.70967a1.21983,1.21983,0,0,1,.77964.20983.74926.74926,0,0,1,.26987.64947,1.06889,1.06889,0,0,1-.14993.60951A.99941.99941,0,0,1,55.634,2.73828ZM58.56263.12041h3.33844l-.09995.83932H59.54218v1.5987h2.089v.78935h-2.089V5.11635h2.37889l-.08.8493H58.56263Zm6.99674,0h.99953V6.00562h-.99953ZM69.1277.96972H67.32854l.09-.84931h4.39794l-.09.84931H70.05726v5.0359h-.99953Zm10.99486.46962A2.36842,2.36842,0,0,0,79.183.44015a2.7695,2.7695,0,0,0-1.46932-.3697A3.09945,3.09945,0,0,0,76.1644.45014a2.58824,2.58824,0,0,0-.99953,1.08912A3.556,3.556,0,0,0,74.78506,3.118a3.486,3.486,0,0,0,.31985,1.55873,2.49838,2.49838,0,0,0,.99953.99919,2.81937,2.81937,0,0,0,1.42933.43964,3.05937,3.05937,0,0,0,1.53928-.37969,2.4783,2.4783,0,0,0,.99954-1.07912,3.6759,3.6759,0,0,0,.35983-1.65865,3.496,3.496,0,0,0-.32985-1.58871ZM79.223,4.22707a1.75863,1.75863,0,0,1-.60972.78936,1.71969,1.71969,0,0,1-.99953.28976,1.65967,1.65967,0,0,1-.99953-.29976,1.74849,1.74849,0,0,1-.58972-.79935A2.99657,2.99657,0,0,1,75.82457,3.058a2.99688,2.99688,0,0,1,.2099-1.1091,1.89858,1.89858,0,0,1,.58972-.82932,1.6597,1.6597,0,0,1,.99954-.29976,1.72965,1.72965,0,0,1,.99953.29976A1.78843,1.78843,0,0,1,79.193,1.919,3.6057,3.6057,0,0,1,79.37291,3.048,3.08637,3.08637,0,0,1,79.203,4.19709ZM81.52191.12041h1.09948l2.7987,4.57628V.12041h.90958V6.00562h-1.0995L82.3915,1.33942v4.6662h-.86959ZM11.3447,13.33965l-.49977,1.169h.99953Zm0,0-.49977,1.169h.99953Zm0,0-.49977,1.169h.99953Zm0,0-.49977,1.169h.99953ZM17.86165.04048H6.99673C1.88912.04048,0,1.919,0,7.03478V17.96589C0,23.1117,1.87912,24.9602,6.99673,24.9602H17.86165c5.10762,0,6.99673-1.87847,6.99673-6.99431V7.11472C24.84839,1.919,22.97926.04048,17.86165.04048ZM5.59738,15.77767H4.93769V14.44875H3.44839v1.32892H2.7887V12.51033h.65969v1.31892h1.4893V12.51033h.65969Zm3.69828-1.41885a1.29935,1.29935,0,0,1-1.39935,1.46881A1.289,1.289,0,0,1,6.507,14.3888V12.52032h.65969v1.8385c0,.54956.26988.83932.73966.83932s.73965-.27977.73965-.80934V12.51033h.6497ZM8.29612,4.20709h.58973a3.54834,3.54834,0,0,0,7.09668.00282V4.20709h.57973a4.13806,4.13806,0,0,1-8.26614.40647Q8.28613,4.41045,8.29612,4.20709Zm4.08809,11.57058-.28986-.66946H10.655l-.29986.67945H9.65549l1.41933-3.26734h.57973l1.41934,3.26734Zm4.14807,0h-.54975l-.73965-2.14825-.73965,2.14825h-.53975L12.834,12.52032h.69968l.70966,2.23818.73966-2.24817h.53975l.72966,2.24817.72965-2.23818h.66969Zm4.10808,0H18.1915V12.52032h2.38888v.58952H18.8412v.66946h1.19944v.59951H18.8412v.80934h1.80915Zm1.44932,0H21.44V12.51033h.6497Zm-11.24475-1.269h.99953l-.49976-1.169Zm.49977-1.169-.49977,1.169h.99953Zm0,0-.49977,1.169h.99953Z"/></svg>